<svg xmlns="http://www.w3.org/2000/svg" xmlns:xlink="http://www.w3.org/1999/xlink" width="949" height="256" viewBox="0 0 949 256" fill="none"><rect x="0" y="0" width="0" height="0" fill="rgba(249, 249, 249, 1)" /><defs><rect id="path_0" x="0" y="0" width="949" height="256" /><radialGradient id="linear_0" cx="50%" cy="50%" fx="50%" fy="50%" r="1.1236" gradientTransform="translate(0.5 0.5) scale(0.5773502691896258 1) rotate(90) scale(1 1.7320508075688772) translate(-0.5 -0.5)" ><stop offset="0" stop-color="#204969" stop-opacity="1" /><stop offset="1" stop-color="#204969" stop-opacity="0.01" /></radialGradient><radialGradient id="linear_1" cx="50%" cy="50%" fx="50%" fy="50%" r="0.9629700000000001" gradientTransform="translate(0.5 0.5) scale(0.5773502691896258 1) rotate(90) scale(1 1.7320508075688772) translate(-0.5 -0.5)" ><stop offset="0" stop-color="#08FFC9" stop-opacity="1" /><stop offset="1" stop-color="#FFB0B0" stop-opacity="0.01" /></radialGradient></defs><g opacity="1" transform="translate(0 0)  rotate(0 474.5 128)"><mask id="bg-mask-0" fill="white"><use xlink:href="#path_0"></use></mask><g mask="url(#bg-mask-0)" ><path id="路径 1" fill-rule="evenodd" fill="url(#linear_0)" transform="translate(0 128)  rotate(0 110.85125168440814 64)" opacity="1" d="M0,64L110.85,128L221.7,64L110.85,0L0,64Z " /><path id="路径 2" fill-rule="evenodd" style="fill:#D9D9D9" transform="translate(0 64)  rotate(0 110.85125168440814 64)" opacity="1" d="M0,64L110.85,128L221.7,64L110.85,0L0,64Z " /><path id="路径 3" fill-rule="evenodd" fill="url(#linear_1)" transform="translate(0 0)  rotate(0 110.85125168440814 64)" opacity="1" d="M0,64L110.85,128L221.7,64L110.85,0L0,64Z " /><g opacity="1" transform="translate(270 64)  rotate(0 339.3607684703435 63.6315)"><path id="文本 1" fill-rule="evenodd" style="fill:#000000" transform="translate(0 0)  rotate(0 339.3607684703435 63.6315)" opacity="1" d="M423.93 114.34C423.93 114.34 416.23 116.82 407.56 116.82C407.56 116.82 396.94 116.82 387.74 113.1C387.74 113.1 378.53 109.39 371.54 102.31C371.54 102.31 364.55 95.23 360.65 85.4C360.65 85.4 356.76 75.58 356.76 63.54C356.76 63.54 356.76 51.86 360.57 42.13C360.57 42.13 364.37 32.39 371.27 25.22C371.27 25.22 378.18 18.05 387.47 14.25C387.47 14.25 396.76 10.44 407.56 10.44C407.56 10.44 416.41 10.44 424.11 12.92C424.11 12.92 431.81 15.4 438.53 19.82C438.53 19.82 440.3 20.71 442.25 20.53C442.25 20.53 444.2 20.35 445.44 18.76C445.44 18.76 446.85 16.64 446.5 14.43C446.5 14.43 446.15 12.21 444.02 10.8C444.02 10.8 436.41 5.66 427.03 2.83C427.03 2.83 417.65 0 407.56 0C407.56 0 394.64 0 383.31 4.78C383.31 4.78 371.98 9.56 363.49 18.05C363.49 18.05 354.99 26.55 350.21 38.14C350.21 38.14 345.43 49.74 345.43 63.54C345.43 63.54 345.43 77.88 350.3 89.56C350.3 89.56 355.17 101.24 363.84 109.65C363.84 109.65 372.51 118.06 383.66 122.66C383.66 122.66 394.81 127.26 407.56 127.26C407.56 127.26 414.29 127.26 421.01 125.76C421.01 125.76 427.74 124.25 433.76 121.78C433.76 121.78 439.77 119.3 444.2 116.47C444.2 116.47 446.15 115.23 446.59 113.01C446.59 113.01 447.03 110.8 445.44 108.86C445.44 108.86 444.2 107.09 442.16 106.82C442.16 106.82 440.13 106.55 438.36 107.62C438.36 107.62 431.63 111.86 423.93 114.34ZM61.77 66.73L11.56 66.73L10.8 67.31L10.8 120.18C10.8 122.31 9.29 123.9 9.29 123.9C7.79 125.49 5.49 125.49 5.49 125.49C3.01 125.49 1.5 123.9 1.5 123.9C0 122.31 0 120.18 0 120.18L0 6.9C0 4.78 1.59 3.19 1.59 3.19C3.19 1.59 5.31 1.59 5.31 1.59L69.74 1.59C72.04 1.59 73.54 3.1 73.54 3.1C75.05 4.6 75.05 6.9 75.05 6.9C75.05 9.03 73.54 10.53 73.54 10.53C72.04 12.04 69.74 12.04 69.74 12.04L11.09 12.04L10.8 12.97L10.8 56.06L10.91 56.46L61.77 56.46C64.07 56.46 65.58 57.97 65.58 57.97C67.08 59.47 67.08 61.6 67.08 61.6C67.08 63.9 65.58 65.31 65.58 65.31C64.07 66.73 61.77 66.73 61.77 66.73ZM174.2 58.06C174.2 58.06 172.61 56.46 170.49 56.46L119.39 56.46L119.33 55.76L119.33 12.03L119.56 12.04L178.45 12.04C178.45 12.04 180.58 12.04 182.17 10.62C182.17 10.62 183.76 9.2 183.76 6.9C183.76 6.9 183.76 4.6 182.17 3.1C182.17 3.1 180.58 1.59 178.45 1.59L113.49 1.59C113.49 1.59 111.37 1.59 109.78 3.19C109.78 3.19 108.18 4.78 108.18 6.9L108.18 120.18C108.18 120.18 108.18 122.31 109.78 123.9C109.78 123.9 111.37 125.49 113.49 125.49L178.45 125.49C178.45 125.49 180.58 125.49 182.17 124.08C182.17 124.08 183.76 122.66 183.76 120.36C183.76 120.36 183.76 118.24 182.17 116.64C182.17 116.64 180.58 115.05 178.45 115.05L119.45 115.05L119.33 115.11L119.33 67.14L119.74 66.91L170.49 66.91C170.49 66.91 172.61 66.91 174.2 65.49C174.2 65.49 175.8 64.07 175.8 61.77C175.8 61.77 175.8 59.65 174.2 58.06ZM306.81 125.49C305.75 125.49 304.51 125.05 304.51 125.05C303.27 124.61 302.56 123.72 302.56 123.72L226.63 22.3634L226.63 120.71C226.63 122.66 225.21 124.08 225.21 124.08C223.8 125.49 221.67 125.49 221.67 125.49C219.37 125.49 218.05 124.08 218.05 124.08C216.72 122.66 216.72 120.71 216.72 120.71L216.72 6.9C216.72 4.25 218.31 2.92 218.31 2.92C219.9 1.59 221.85 1.59 221.85 1.59C222.91 1.59 224.15 2.04 224.15 2.04C225.39 2.48 226.1 3.54 226.1 3.54L302.39 105.633L302.39 6.55C302.39 4.42 303.89 3.01 303.89 3.01C305.4 1.59 307.34 1.59 307.34 1.59C309.64 1.59 310.97 3.01 310.97 3.01C312.3 4.42 312.3 6.55 312.3 6.55L312.3 119.83C312.3 122.48 310.62 123.99 310.62 123.99C308.94 125.49 306.81 125.49 306.81 125.49ZM478.75 123.9C477.16 122.31 477.16 120.18 477.16 120.18L477.16 6.9C477.16 4.78 478.75 3.19 478.75 3.19C480.34 1.59 482.47 1.59 482.47 1.59L547.42 1.59C549.55 1.59 551.14 3.1 551.14 3.1C552.73 4.6 552.73 6.9 552.73 6.9C552.73 9.2 551.14 10.62 551.14 10.62C549.55 12.04 547.42 12.04 547.42 12.04L488.54 12.04L488.31 12.03L488.31 56L488.36 56.46L539.46 56.46C541.58 56.46 543.18 58.06 543.18 58.06C544.77 59.65 544.77 61.77 544.77 61.77C544.77 64.07 543.18 65.49 543.18 65.49C541.58 66.91 539.46 66.91 539.46 66.91L488.71 66.91L488.31 67.14L488.31 115.11L488.42 115.05L547.42 115.05C549.55 115.05 551.14 116.64 551.14 116.64C552.73 118.24 552.73 120.36 552.73 120.36C552.73 122.66 551.14 124.08 551.14 124.08C549.55 125.49 547.42 125.49 547.42 125.49L482.47 125.49C480.34 125.49 478.75 123.9 478.75 123.9ZM644.01 73.54C644.01 73.54 648.17 74.52 651.62 76.91C651.62 76.91 655.08 79.3 657.29 83.72C657.29 83.72 659.5 88.15 659.5 95.05C659.5 95.05 659.5 105.49 661.18 111.33C661.18 111.33 662.86 117.17 665.43 120.18C665.43 120.18 668 123.19 670.47 124.61C670.47 124.61 671.89 125.32 673.31 125.32C673.31 125.32 674.72 125.32 676.05 124.7C676.05 124.7 677.38 124.08 678.09 122.66C678.09 122.66 679.15 120.89 678.53 118.94C678.53 118.94 677.91 117 676.14 115.94C676.14 115.94 674.19 114.7 672.95 112.57C672.95 112.57 671.71 110.45 671.09 106.2C671.09 106.2 670.47 101.95 670.3 94.34C670.3 94.34 670.12 85.49 666.67 79.21C666.67 79.21 663.22 72.92 657.55 69.3C657.55 69.3 655 66.08 647 66.08L651.62 66.08C651.62 66.08 657.91 64.96 663.04 60.45C663.04 60.45 668.17 55.93 671.01 49.38C671.01 49.38 673.84 42.83 673.84 35.05C673.84 35.05 673.84 25.49 669.32 17.88C669.32 17.88 664.81 10.27 656.85 5.93C656.85 5.93 648.88 1.59 638.79 1.59L591 1.59C591 1.59 588.88 1.59 587.28 3.19C587.28 3.19 585.69 4.78 585.69 6.9L585.69 120.18C585.69 120.18 585.69 122.31 587.37 123.9C587.37 123.9 589.05 125.49 591.71 125.49C591.71 125.49 594.01 125.49 595.43 123.9C595.43 123.9 596.84 122.31 596.84 120.18L596.84 73.09L596.89 72.57L636.14 72.57C636.14 72.57 639.85 72.57 644.01 73.54ZM650.65 58.85C650.65 58.85 645.34 62.3 639.32 62.83L596.89 62.83L596.84 62.31L596.84 12.56L597.6 12.04L637.91 12.04C637.91 12.04 648.88 12.04 655.69 18.67C655.69 18.67 662.51 25.31 662.51 35.4C662.51 35.4 662.51 43.36 659.23 49.38C659.23 49.38 655.96 55.4 650.65 58.85Z" /></g></g></g></svg>